<svg xmlns="http://www.w3.org/2000/svg" xmlns:xlink="http://www.w3.org/1999/xlink" width="149.106" height="97.265" viewBox="0 0 149.106 97.265">
  <defs>
    <clipPath id="clip-path">
      <rect id="Rechteck_1" data-name="Rechteck 1" width="149.106" height="97.265" fill="none"/>
    </clipPath>
  </defs>
  <g id="Gruppe_5" data-name="Gruppe 5" transform="translate(0 0)">
    <g id="Gruppe_2" data-name="Gruppe 2" transform="translate(0 0)">
      <g id="Gruppe_1" data-name="Gruppe 1" clip-path="url(#clip-path)">
        <path id="Pfad_1" data-name="Pfad 1" d="M1.17,93.355c0-5.4,4.147-9.265,9.726-9.265a9.252,9.252,0,0,1,7.372,3.173L15.606,89.72a5.767,5.767,0,0,0-4.5-2.1,5.734,5.734,0,0,0,0,11.467,5.71,5.71,0,0,0,4.5-2.125l2.662,2.457a9.206,9.206,0,0,1-7.4,3.2c-5.554,0-9.7-3.865-9.7-9.266" transform="translate(-0.172 -12.343)" fill="#6b401f"/>
        <path id="Pfad_2" data-name="Pfad 2" d="M22.739,93.355c0-5.323,4.148-9.265,9.8-9.265,5.63,0,9.8,3.915,9.8,9.265s-4.172,9.266-9.8,9.266c-5.657,0-9.8-3.942-9.8-9.266m15.409,0a5.607,5.607,0,1,0-5.6,5.734,5.466,5.466,0,0,0,5.6-5.734" transform="translate(-3.338 -12.343)" fill="#6b401f"/>
        <path id="Pfad_3" data-name="Pfad 3" d="M53.526,87.777v4.735h8.293V95.84H53.526v6.527H49.379V84.451H62.92v3.327Z" transform="translate(-7.248 -12.396)" fill="#6b401f"/>
        <path id="Pfad_4" data-name="Pfad 4" d="M72.7,87.777v4.735h8.293V95.84H72.7v6.527H68.549V84.451H82.09v3.327Z" transform="translate(-10.062 -12.396)" fill="#6b401f"/>
        <path id="Pfad_5" data-name="Pfad 5" d="M101.591,99.04v3.327H87.719V84.45h13.54v3.328H91.84v3.891h8.318v3.225H91.84V99.04Z" transform="translate(-12.875 -12.396)" fill="#6b401f"/>
      </g>
    </g>
    <path id="Pfad_6" data-name="Pfad 6" d="M121.721,99.04v3.327H107.848V84.45h13.54v3.328h-9.419v3.891h8.318v3.225h-8.318V99.04Z" transform="translate(-15.83 -12.395)" fill="#6b401f"/>
    <g id="Gruppe_4" data-name="Gruppe 4" transform="translate(0 0)">
      <g id="Gruppe_3" data-name="Gruppe 3" clip-path="url(#clip-path)">
        <path id="Pfad_7" data-name="Pfad 7" d="M126.628,93.355c0-5.4,4.147-9.265,9.726-9.265a9.251,9.251,0,0,1,7.372,3.173l-2.661,2.457a5.769,5.769,0,0,0-4.505-2.1,5.734,5.734,0,0,0,0,11.467,5.711,5.711,0,0,0,4.505-2.125l2.661,2.457a9.2,9.2,0,0,1-7.4,3.2c-5.554,0-9.7-3.865-9.7-9.266" transform="translate(-18.586 -12.343)" fill="#6b401f"/>
        <path id="Pfad_8" data-name="Pfad 8" d="M148.2,93.355c0-5.323,4.147-9.265,9.8-9.265,5.63,0,9.8,3.915,9.8,9.265s-4.172,9.266-9.8,9.266c-5.657,0-9.8-3.942-9.8-9.266m15.408,0a5.607,5.607,0,1,0-5.6,5.734,5.466,5.466,0,0,0,5.6-5.734" transform="translate(-21.752 -12.343)" fill="#6b401f"/>
        <path id="Pfad_9" data-name="Pfad 9" d="M81.575,64.091c-24.33.546-36.835-26.7-33.084-43.138A23.84,23.84,0,0,1,57.7,7.5C63.786,2.869,72.235,0,81.575,0c9.408,0,17.918,2.912,24.01,7.6,5.7,4.391,9.056,9.9,9.632,17.055A13.274,13.274,0,0,1,123.5,27.2a8.588,8.588,0,0,1,3.1,8.2,13.723,13.723,0,0,1-4.782,7.97,33.053,33.053,0,0,1-14.145,6.957c-5.748,8.08-14.6,14.03-26.1,13.772m0-59.555c-8.276,0-15.71,2.474-21.03,6.477-4.949,3.723-8.009,8.767-8.009,14.249S55.6,35.787,60.544,39.51c5.319,4,12.75,6.478,21.03,6.478s15.711-2.474,21.03-6.478c4.949-3.723,8.009-8.767,8.009-14.249s-3.061-10.526-8.009-14.249c-5.319-4-12.751-6.477-21.03-6.477M112.517,41.3c3.258-.445,7-2.032,8.847-4.9a3.858,3.858,0,0,0,.683-2.741c-.193-1.166-1.131-1.758-2.389-1.973a13.244,13.244,0,0,0-4.684.206,41.534,41.534,0,0,1-2.456,9.405" transform="translate(-7.021 0)" fill="#6b401f" fill-rule="evenodd"/>
        <path id="Pfad_10" data-name="Pfad 10" d="M74.873,10.816a.413.413,0,0,0,.411.391A18.482,18.482,0,0,1,85.608,14.6c2.14,1.61,3.886,3.963,3.886,6.74a7.858,7.858,0,0,1-2.282,5.3c-2.877,3.119-6.1,6.208-9.093,9.251a.682.682,0,0,1-.657.211.616.616,0,0,1-.427-.546c-.2-1.384-.411-2.771-.617-4.156a20.589,20.589,0,0,1-10.864-1.877c-2.979-1.489-5.928-4.163-6.2-7.669a.34.34,0,0,0-.3-.315.321.321,0,0,0-.349.2,11.553,11.553,0,0,0,.484,10.809c2.752,4.9,8.215,8.106,13.45,9.72a36.336,36.336,0,0,0,20.72,0c5.235-1.613,10.7-4.822,13.45-9.72a11.609,11.609,0,0,0,0-11.753c-2.752-4.9-8.216-8.106-13.45-9.72a36.468,36.468,0,0,0-18.19-.669.411.411,0,0,0-.3.417M73,18.71c.613,0,1.109.35,1.109.781s-.5.781-1.109.781-1.109-.349-1.109-.781.5-.781,1.109-.781m-1.241-1.818c.466,0,.845.265.845.6s-.379.6-.845.6-.846-.267-.846-.6.378-.6.846-.6m2.281-4.723c.482,0,.874.276.874.614s-.392.613-.874.613-.875-.274-.875-.613.392-.614.875-.614m-1.153,1.954c.965,0,1.747.55,1.747,1.229s-.782,1.228-1.747,1.228-1.749-.549-1.749-1.228.782-1.229,1.749-1.229M70.957,12.15c.632,0,1.143.36,1.143.8s-.512.8-1.143.8-1.143-.359-1.143-.8.512-.8,1.143-.8m-1.5,6.083c.768,0,1.391.437,1.391.977s-.623.978-1.391.978-1.391-.437-1.391-.978.623-.977,1.391-.977m-5.571-.182c1.867,0,3.38,1.064,3.38,2.376S65.753,22.8,63.886,22.8,60.5,21.739,60.5,20.427s1.513-2.376,3.381-2.376m3.884-3.8c1.287,0,2.33.733,2.33,1.637s-1.043,1.637-2.33,1.637-2.33-.733-2.33-1.637,1.043-1.637,2.33-1.637" transform="translate(-8.454 -1.403)" fill="#dba669" fill-rule="evenodd"/>
      </g>
    </g>
  </g>
</svg>
